<svg xmlns="http://www.w3.org/2000/svg" width="1000" height="300" viewBox="0 0 1000 300" preserveAspectRatio="xMidYMid meet" role="img" aria-labelledby="title desc">
  <title id="title">PitWall F1 launch car</title>
  <desc id="desc">An original self-hosted Formula-style race car silhouette for the PitWall start transition.</desc>
  <defs>
    <linearGradient id="body" x1="112" y1="92" x2="875" y2="210" gradientUnits="userSpaceOnUse">
      <stop offset="0" stop-color="#ff2b20"/>
      <stop offset=".32" stop-color="#e10600"/>
      <stop offset=".64" stop-color="#17100f"/>
      <stop offset="1" stop-color="#35e6d3"/>
    </linearGradient>
    <linearGradient id="floor" x1="132" y1="222" x2="900" y2="222" gradientUnits="userSpaceOnUse">
      <stop offset="0" stop-color="#ff2b20"/>
      <stop offset=".55" stop-color="#ffe2d6"/>
      <stop offset="1" stop-color="#35e6d3"/>
    </linearGradient>
    <radialGradient id="wheel" cx=".5" cy=".5" r=".62">
      <stop offset="0" stop-color="#5b5652"/>
      <stop offset=".23" stop-color="#221b19"/>
      <stop offset=".58" stop-color="#070505"/>
      <stop offset=".76" stop-color="#19110f"/>
      <stop offset="1" stop-color="#050404"/>
    </radialGradient>
    <filter id="softShadow" x="-10%" y="-20%" width="120%" height="150%">
      <feDropShadow dx="0" dy="18" stdDeviation="12" flood-color="#000000" flood-opacity=".48"/>
    </filter>
  </defs>

  <g filter="url(#softShadow)">
    <path d="M84 205c77-25 151-37 224-36h318c109 0 204 14 285 42" fill="none" stroke="#180907" stroke-width="34" stroke-linecap="round" opacity=".82"/>
    <path d="M96 203c69-20 137-30 204-30h334c96 0 183 13 262 38" fill="none" stroke="url(#floor)" stroke-width="8" stroke-linecap="round"/>

    <g fill="#120806" stroke="#ffe2d6" stroke-opacity=".2">
      <path d="M80 116h82c14 0 24 11 22 25l-8 59H88c-13 0-23-10-23-23v-38c0-13 7-21 15-23Z"/>
      <path d="M802 138h116c21 0 35 14 41 31l10 31H826c-18 0-33-13-36-31l-5-28c5-2 11-3 17-3Z"/>
    </g>

    <path d="M148 176c48-39 91-61 145-65 54-5 96 12 148 34 24 10 66 13 103 4 42-10 79-7 117 9l142 61H195c-39 0-63-7-79-23 11-8 22-15 32-20Z" fill="url(#body)" stroke="#ffe2d6" stroke-opacity=".16"/>
    <path d="M330 125c58-20 112-18 161 7l44 24c-58 12-107 8-148-12-21-10-40-17-57-19Z" fill="#35e6d3" opacity=".9"/>
    <path d="M526 151c70-13 127-7 171 18l92 53H561c-43 0-79-6-108-18l-58-25c47-4 91-13 131-28Z" fill="#0f0b0a" opacity=".86"/>
    <path d="M173 181c85-38 171-46 260-12" fill="none" stroke="#ffcabd" stroke-width="8" stroke-linecap="round" opacity=".5"/>
    <path d="M609 175c74 2 137 19 189 50" fill="none" stroke="#35e6d3" stroke-width="7" stroke-linecap="round" opacity=".7"/>

    <g fill="none" stroke-linecap="round" stroke-linejoin="round">
      <path d="M387 135c23-42 84-43 120-6" stroke="#ffe2d6" stroke-width="12" opacity=".3"/>
      <path d="M402 137c22-27 57-29 86-5" stroke="#101010" stroke-width="18"/>
      <path d="M428 126c24-5 42-1 58 12" stroke="#35e6d3" stroke-width="6"/>
    </g>

    <g stroke="#ffe2d6" stroke-opacity=".32" stroke-width="5" stroke-linecap="round">
      <path d="M255 176 169 127"/>
      <path d="M282 177 176 196"/>
      <path d="M727 177 823 151"/>
      <path d="M759 179 851 205"/>
    </g>

    <g>
      <circle cx="258" cy="211" r="58" fill="url(#wheel)"/>
      <circle cx="258" cy="211" r="29" fill="#241b18" stroke="#ffe2d6" stroke-opacity=".25" stroke-width="5"/>
      <circle cx="258" cy="211" r="8" fill="#ff2b20"/>
      <circle cx="756" cy="211" r="58" fill="url(#wheel)"/>
      <circle cx="756" cy="211" r="29" fill="#241b18" stroke="#ffe2d6" stroke-opacity=".25" stroke-width="5"/>
      <circle cx="756" cy="211" r="8" fill="#35e6d3"/>
    </g>

    <path d="M60 211h126" stroke="#e10600" stroke-width="9" stroke-linecap="round"/>
    <path d="M842 212h118" stroke="#ffe2d6" stroke-width="8" stroke-linecap="round" opacity=".82"/>
    <path d="M120 104h69" stroke="#e10600" stroke-width="8" stroke-linecap="round"/>
    <path d="M798 132h122" stroke="#35e6d3" stroke-width="8" stroke-linecap="round"/>
  </g>
</svg>
